<?xml version="1.0" encoding="iso-8859-1"?>
<!-- Generator: Adobe Illustrator 19.0.0, SVG Export Plug-In . SVG Version: 6.00 Build 0)  -->
<svg version="1.1" id="Capa_1" xmlns="http://www.w3.org/2000/svg" xmlns:xlink="http://www.w3.org/1999/xlink" x="0px" y="0px"
	 viewBox="0 0 512 512" style="enable-background:new 0 0 512 512;" xml:space="preserve">
<circle style="fill:#10BEC1;" cx="256" cy="256" r="256"/>
<path style="fill:#445280;" d="M503.557,60.05v261.381c-7.555,28.693-19.978,55.411-36.321,79.224H44.763
	c-14.733-21.462-26.269-45.286-33.938-70.781V60.05c0-17,13.782-30.793,30.783-30.793h431.167
	C489.775,29.257,503.557,43.05,503.557,60.05z"/>
<path style="fill:#E5E5E5;" d="M485.473,67.374v282.07c0,10.292-6.447,18.641-14.409,18.641H43.314
	c-7.952,0-14.399-8.349-14.399-18.641V67.374c0-10.292,6.447-18.641,14.399-18.641h427.75
	C479.026,48.733,485.473,57.082,485.473,67.374z"/>
<rect x="224.946" y="400.656" style="fill:#4D65A3;" width="64.497" height="75.797"/>
<rect x="224.946" y="400.656" style="fill:#303C69;" width="64.497" height="20.27"/>
<path style="fill:#445280;" d="M398.764,468.522c-5.413,3.647-10.982,7.095-16.687,10.324H129.923
	c-5.13-2.905-10.156-5.987-15.057-9.226c10.136-15.287,27.376-24.785,46.174-24.785h192.303c11.16,0,21.786,3.354,30.689,9.279
	C389.747,457.916,394.762,462.796,398.764,468.522z"/>
<path style="fill:#D6D6D6;" d="M485.473,67.374v12.319H28.915V67.374c0-10.292,6.447-18.641,14.399-18.641h427.75
	C479.026,48.733,485.473,57.082,485.473,67.374z"/>
<circle style="fill:#F43F7E;" cx="51.722" cy="64.021" r="8.359"/>
<circle style="fill:#FDD25E;" cx="78.367" cy="64.021" r="8.359"/>
<circle style="fill:#1B9E84;" cx="105.012" cy="64.021" r="8.359"/>
<g>
	<path style="fill:#F43F7E;" d="M344.585,213.065H169.804c-4.047,0-7.328-3.281-7.328-7.328s3.281-7.328,7.328-7.328h174.781
		c4.047,0,7.328,3.281,7.328,7.328S348.632,213.065,344.585,213.065z"/>
	<path style="fill:#F43F7E;" d="M201.881,198.41c-0.557,3.174-0.864,6.434-0.864,9.768v42.53c0,31.025,25.152,56.177,56.177,56.177
		l0,0c31.026,0,56.177-25.152,56.177-56.177v-42.53c0-3.334-0.307-6.594-0.864-9.768L201.881,198.41L201.881,198.41z"/>
	<path style="fill:#F43F7E;" d="M307.797,183.755c-9.086-18.791-28.33-31.753-50.602-31.753l0,0
		c-22.272,0-41.516,12.962-50.602,31.753L307.797,183.755L307.797,183.755z"/>
	<path style="fill:#F43F7E;" d="M352.727,249.976H161.662c-4.047,0-7.328-3.281-7.328-7.328s3.281-7.328,7.328-7.328h191.065
		c4.047,0,7.328,3.281,7.328,7.328S356.774,249.976,352.727,249.976z"/>
	<path style="fill:#F43F7E;" d="M260.599,269.229l-74.487,24.999c-3.837,1.287-7.99-0.778-9.279-4.615
		c-1.287-3.837,0.778-7.99,4.615-9.279l74.487-24.999c3.837-1.287,7.99,0.778,9.279,4.615S264.435,267.941,260.599,269.229z"/>
	<path style="fill:#F43F7E;" d="M253.79,269.229l74.487,24.999c3.837,1.287,7.99-0.778,9.279-4.615
		c1.287-3.837-0.778-7.99-4.615-9.279l-74.487-24.999c-3.837-1.287-7.99,0.778-9.279,4.615S249.953,267.941,253.79,269.229z"/>
	<path style="fill:#F43F7E;" d="M242.539,174.527c-4.047,0-7.328-3.281-7.328-7.328v-23.815c0-4.047,3.281-7.328,7.328-7.328
		s7.328,3.281,7.328,7.328v23.815C249.865,171.246,246.585,174.527,242.539,174.527z"/>
	<path style="fill:#F43F7E;" d="M271.849,174.527c-4.047,0-7.328-3.281-7.328-7.328v-23.815c0-4.047,3.281-7.328,7.328-7.328
		s7.328,3.281,7.328,7.328v23.815C279.177,171.246,275.897,174.527,271.849,174.527z"/>
</g>
<g>
</g>
<g>
</g>
<g>
</g>
<g>
</g>
<g>
</g>
<g>
</g>
<g>
</g>
<g>
</g>
<g>
</g>
<g>
</g>
<g>
</g>
<g>
</g>
<g>
</g>
<g>
</g>
<g>
</g>
</svg>
