<?xml version="1.0" standalone="no"?>
<!DOCTYPE svg PUBLIC "-//W3C//DTD SVG 20010904//EN"
 "http://www.w3.org/TR/2001/REC-SVG-20010904/DTD/svg10.dtd">
<svg version="1.0" xmlns="http://www.w3.org/2000/svg"
 width="1024.000000pt" height="1024.000000pt" viewBox="0 0 1024.000000 1024.000000"
 preserveAspectRatio="xMidYMid meet">
<metadata>
Created by potrace 1.11, written by Peter Selinger 2001-2013
</metadata>
<g transform="translate(0.000000,1024.000000) scale(0.100000,-0.100000)"
fill="#000000" stroke="none">
<path d="M5550 8765 c-158 -27 -264 -56 -478 -133 -28 -10 -55 -22 -59 -25 -3
-4 -12 -7 -19 -7 -14 0 -117 -45 -192 -83 -87 -45 -274 -212 -394 -354 -96
-113 -263 -423 -360 -668 -11 -27 -30 -73 -44 -103 -13 -29 -24 -55 -24 -58 0
-2 -16 -39 -36 -82 -107 -228 -149 -306 -284 -532 -102 -170 -245 -443 -290
-555 -48 -119 -79 -214 -111 -340 -41 -159 -30 -456 27 -733 8 -40 18 -80 21
-89 5 -11 3 -14 -6 -8 -10 6 -11 3 -1 -14 6 -13 16 -19 23 -14 7 4 5 -2 -3
-12 -9 -11 -10 -16 -2 -11 6 4 12 3 12 -1 0 -5 -15 -17 -32 -28 -52 -30 -61
-42 -48 -64 14 -28 13 -52 -6 -72 -48 -53 -64 -343 -24 -427 11 -22 20 -47 20
-55 0 -44 54 -192 87 -239 46 -67 130 -149 185 -184 24 -14 56 -38 72 -53 16
-14 26 -21 23 -14 -5 7 0 9 14 6 14 -4 17 -8 9 -13 -8 -5 -2 -10 15 -14 52
-13 71 -50 84 -160 6 -56 16 -120 21 -144 6 -23 10 -52 10 -64 0 -20 12 -66
30 -113 5 -11 11 -28 14 -37 3 -10 13 -18 22 -18 15 0 16 8 10 58 -4 31 -10
102 -15 157 -4 55 -10 106 -15 113 -4 6 -4 17 0 23 4 8 9 7 15 -2 7 -11 9 -10
9 4 0 9 6 17 14 17 23 0 46 -11 46 -22 0 -6 17 -26 37 -45 34 -32 39 -34 70
-25 23 7 31 7 26 -1 -4 -6 0 -8 9 -4 9 3 30 -5 47 -17 44 -33 130 -49 231 -43
47 3 137 7 200 10 87 3 130 10 175 27 85 31 120 39 139 28 11 -6 16 -5 16 3 0
8 4 8 15 -1 11 -9 15 -9 15 -1 0 7 4 9 10 6 5 -3 18 -1 28 4 11 6 30 12 43 15
13 3 51 12 84 21 33 8 78 15 100 15 23 0 59 9 80 21 22 11 47 22 55 24 48 14
90 31 90 37 0 5 9 8 20 8 11 0 57 28 102 63 84 64 140 97 165 97 7 0 13 5 13
10 0 6 7 10 15 10 14 0 93 45 105 59 5 6 24 16 193 105 199 104 299 200 345
330 20 56 20 60 4 73 -9 7 -28 12 -42 10 -22 -2 -25 -7 -25 -39 0 -34 -29 -78
-51 -78 -4 0 -17 -8 -28 -19 -12 -10 -53 -41 -93 -68 -71 -48 -73 -49 -125
-42 -46 6 -58 4 -88 -17 -20 -13 -58 -27 -85 -30 -28 -3 -69 -14 -92 -25 -24
-10 -54 -19 -67 -19 -14 0 -27 -4 -30 -9 -3 -4 -29 -11 -57 -14 -36 -5 -60
-14 -78 -31 -50 -47 -112 -46 -129 3 -8 22 -21 32 -60 45 -43 15 -50 21 -54
47 -3 21 -1 28 8 25 8 -3 11 0 7 10 -3 8 1 14 8 14 9 0 14 12 15 30 1 16 -3
27 -7 24 -5 -3 -9 0 -9 5 0 6 5 11 10 11 6 0 5 8 -2 19 -7 11 -16 17 -20 15
-4 -3 -8 2 -8 11 0 9 -4 14 -9 11 -5 -3 -11 1 -14 9 -3 7 -30 21 -58 29 -60
18 -93 20 -84 6 3 -5 1 -10 -5 -10 -6 0 -8 -5 -4 -12 4 -6 3 -8 -4 -4 -11 7
-45 -11 -109 -56 -32 -23 -52 -29 -109 -32 -39 -2 -80 -8 -92 -15 -11 -6 -31
-11 -44 -11 -18 0 -30 -11 -49 -47 -35 -64 -56 -75 -77 -44 -10 14 -21 38 -27
55 -12 37 -48 45 -106 26 -35 -12 -40 -11 -75 18 -21 17 -41 29 -46 26 -4 -3
-8 0 -8 6 0 6 -4 9 -9 5 -5 -3 -11 5 -13 17 -2 18 -11 24 -37 26 -22 2 -31 0
-26 -8 11 -18 -4 -60 -21 -60 -9 0 -32 13 -51 30 -18 16 -37 30 -42 30 -4 0
-20 25 -35 55 -29 60 -48 73 -115 77 -38 2 -41 5 -47 35 -3 18 -3 40 0 49 4
11 2 15 -8 11 -11 -4 -13 -1 -9 10 5 12 3 14 -7 8 -10 -6 -12 -4 -7 9 8 21 -2
25 -78 28 -33 2 -58 7 -55 11 6 10 -49 41 -57 33 -11 -11 -44 33 -86 119 -39
77 -45 100 -48 160 -1 39 1 83 6 98 11 42 13 129 2 151 -6 13 -5 21 4 27 8 5
9 9 3 9 -10 0 -37 68 -38 98 -1 7 -8 17 -16 22 -13 9 -11 13 10 30 14 11 39
20 57 20 17 0 33 3 36 8 2 4 2 1 1 -5 -9 -37 65 1 120 62 15 17 24 23 20 15
-7 -13 -6 -13 11 0 61 47 73 63 79 103 9 53 9 55 1 98 -8 43 12 69 53 69 49 0
98 19 109 43 6 12 16 45 22 72 13 55 47 100 65 86 14 -10 77 -20 94 -14 20 7
14 81 -10 127 -37 67 -101 145 -120 146 -22 0 16 -136 46 -166 20 -20 20 -27
-2 -47 -21 -19 -52 -21 -101 -7 -26 7 -42 5 -73 -8 -21 -10 -36 -21 -33 -24 3
-3 -1 -8 -10 -12 -10 -4 -14 -2 -9 5 5 8 -10 10 -52 6 -32 -3 -66 -8 -74 -10
-8 -3 -25 -8 -37 -12 -13 -4 -23 -11 -23 -15 0 -5 -10 -10 -21 -12 -12 -2 -27
-12 -33 -22 -37 -65 -141 -170 -194 -198 -26 -13 -47 -31 -47 -39 -1 -8 -7
-25 -14 -38 -13 -23 -15 -23 -26 -8 -11 15 -13 14 -20 -15 -4 -18 -9 -27 -12
-20 -4 10 -8 10 -21 0 -13 -11 -14 -9 -9 22 4 19 13 94 21 165 17 145 46 270
70 293 33 33 32 0 -9 -223 -15 -86 -6 -113 25 -72 32 42 40 84 50 266 l11 185
58 120 c31 67 76 152 99 190 23 37 42 70 42 72 0 2 20 35 43 72 24 37 75 117
114 177 191 301 179 285 230 285 25 0 50 8 70 23 38 28 100 100 108 127 4 13
15 20 31 20 20 0 29 -10 49 -55 13 -30 30 -56 37 -56 30 -3 56 4 105 27 29 13
63 28 77 34 13 5 32 25 41 44 27 57 55 44 99 -47 35 -72 45 -132 23 -140 -14
-5 -113 4 -209 19 -21 3 -38 2 -38 -2 0 -10 32 -24 96 -44 23 -7 54 -22 69
-34 27 -22 27 -23 11 -54 -9 -17 -38 -58 -66 -91 -27 -33 -50 -63 -50 -66 0
-13 37 -2 91 26 69 37 149 119 177 182 15 34 16 111 2 138 -7 13 -8 25 -1 37
6 10 11 12 11 4 0 -10 3 -10 14 0 8 7 11 17 9 22 -3 5 0 7 8 4 8 -2 18 -26 23
-51 8 -39 13 -47 31 -47 46 0 85 74 74 136 -14 76 -64 154 -99 154 -9 0 -21 5
-28 12 -9 9 -12 9 -12 0 0 -7 5 -12 11 -12 5 0 7 -5 4 -11 -9 -13 -40 7 -102
67 -90 88 -104 93 -271 101 -129 5 -150 4 -164 -11 -20 -19 -44 -21 -52 -3 -2
6 -4 3 -4 -8 1 -11 0 -31 0 -44 -2 -20 -4 -21 -17 -11 -13 11 -15 8 -12 -21 2
-19 -3 -38 -10 -44 -6 -5 -13 -16 -15 -24 -3 -15 -21 -41 -46 -67 -7 -8 -10
-14 -7 -14 6 0 -28 -62 -48 -85 -4 -5 -14 -19 -22 -30 -7 -11 -16 -17 -19 -14
-9 9 74 170 84 164 6 -3 7 0 4 8 -6 16 26 97 38 97 5 0 8 6 8 14 0 8 6 21 13
28 6 7 23 37 37 65 17 37 31 53 45 54 11 0 15 3 8 5 -14 6 4 54 20 54 5 0 4
-7 -3 -15 -19 -23 -2 -37 25 -19 13 9 28 13 34 10 5 -4 30 1 56 9 31 11 60 14
91 9 43 -6 46 -5 79 34 24 27 46 42 70 46 19 4 35 12 35 19 0 7 5 4 11 -5 12
-21 32 -23 51 -5 31 30 76 55 110 61 46 8 51 16 42 62 l-7 37 -161 -7 c-177
-7 -349 -21 -383 -32 -32 -9 -29 -40 5 -52 l27 -10 -25 -1 c-21 -1 -22 -3 -10
-12 13 -9 12 -10 -3 -5 -19 6 -67 -12 -67 -26 0 -4 -7 -8 -15 -8 -53 0 33 153
168 296 103 110 149 164 181 215 45 70 145 140 271 189 77 30 140 52 205 70
108 30 152 48 180 75 57 52 199 100 335 112 127 12 324 -8 465 -46 19 -5 46
-13 60 -16 14 -4 34 -11 45 -15 11 -5 41 -16 68 -24 84 -28 238 -106 336 -171
136 -90 278 -222 397 -370 96 -118 259 -387 250 -411 -3 -7 0 -13 6 -11 7 1
14 -7 16 -18 4 -18 3 -18 -14 -5 -18 14 -18 14 -5 -3 8 -10 20 -16 28 -13 7 3
13 -1 13 -9 0 -7 7 -21 16 -30 15 -14 14 -19 -5 -57 -20 -41 -20 -42 -2 -59
14 -14 21 -15 31 -6 10 10 10 7 0 -11 -6 -13 -9 -26 -6 -30 3 -3 6 0 6 6 0 7
5 12 10 12 6 0 10 -7 10 -15 0 -8 5 -15 11 -15 6 0 8 9 3 22 -6 20 -5 21 9 9
9 -7 15 -16 12 -20 -2 -4 5 -15 16 -24 10 -9 19 -25 19 -34 0 -14 -2 -15 -9
-4 -5 8 -9 -15 -9 -60 -1 -68 2 -77 30 -112 27 -34 30 -46 33 -120 2 -47 11
-99 20 -121 12 -27 13 -42 6 -49 -6 -6 -11 -18 -11 -26 0 -12 3 -11 18 2 10
10 22 17 26 17 4 0 -5 -11 -20 -25 -22 -21 -25 -27 -14 -40 7 -9 10 -18 6 -22
-3 -3 -6 -1 -6 5 0 20 -28 13 -35 -8 -7 -23 -30 -26 -42 -5 -7 12 -12 12 -33
2 -32 -16 -32 -62 0 -106 20 -29 20 -31 3 -31 -10 0 -23 -10 -28 -22 -6 -15
-19 -23 -35 -24 -43 -1 -50 -4 -50 -18 0 -7 9 -16 20 -19 26 -7 35 -33 22 -60
-6 -12 -14 -33 -17 -45 -6 -19 -12 -22 -31 -18 -19 5 -24 3 -24 -14 0 -13 -7
-20 -20 -20 -24 0 -27 -28 -4 -56 10 -13 17 -15 20 -7 13 31 69 -65 59 -101
-15 -52 -29 -76 -44 -77 -9 -1 3 -5 27 -11 33 -7 42 -14 43 -31 0 -20 1 -21 8
-3 6 17 8 17 14 4 3 -9 3 -25 0 -36 -2 -11 1 -23 8 -27 8 -6 10 -4 4 4 -7 13
12 61 25 61 7 0 -12 -92 -32 -162 l-11 -38 -59 0 c-32 0 -58 -4 -58 -9 0 -15
118 -66 185 -81 84 -19 90 -25 63 -67 -20 -34 -21 -37 -4 -82 9 -25 16 -65 16
-88 0 -81 -55 -247 -148 -453 -81 -178 -219 -347 -326 -402 -58 -30 -146 -30
-208 0 -26 12 -55 22 -64 22 -32 0 -93 23 -98 37 -3 8 5 29 19 47 15 20 25 46
25 67 1 97 63 256 237 604 51 103 143 336 143 362 0 18 -6 23 -25 23 -61 0
-93 -37 -115 -133 -15 -68 -77 -254 -104 -312 -13 -27 -32 -68 -42 -90 -10
-22 -25 -51 -35 -65 -74 -111 -100 -159 -119 -217 -12 -38 -28 -83 -36 -101
-8 -18 -13 -36 -10 -40 8 -13 -53 -245 -67 -254 -19 -12 -23 -10 -48 21 -13
16 -26 28 -29 26 -7 -4 11 -123 24 -162 9 -29 29 -29 50 0 9 12 30 41 47 65
17 24 33 41 36 39 2 -3 -6 -40 -17 -83 -21 -79 -26 -103 -53 -264 -28 -161
-38 -245 -67 -522 -19 -184 -10 -277 35 -348 30 -47 54 -68 155 -133 47 -31
106 -72 132 -91 25 -20 51 -36 57 -36 6 0 11 -4 11 -8 0 -5 9 -19 20 -32 22
-25 40 -80 40 -121 0 -67 -57 -204 -133 -319 -256 -385 -553 -642 -947 -818
-140 -62 -421 -144 -540 -158 -19 -2 -65 -7 -102 -12 -38 -5 -68 -5 -68 -2 0
4 -17 6 -37 6 -85 -1 -154 5 -149 12 3 5 0 9 -7 10 -199 23 -282 25 -380 6
-27 -5 -35 -10 -25 -16 8 -5 -5 -8 -37 -8 -27 0 -67 -1 -87 -2 -20 -1 -54 4
-75 10 -125 37 -112 28 -150 111 -20 42 -39 77 -44 79 -4 2 -5 10 -2 19 4 10
2 14 -4 10 -12 -8 -26 20 -18 33 3 5 1 11 -5 15 -5 3 -10 14 -10 24 0 10 -6
24 -14 30 -7 6 -26 46 -41 89 -16 42 -31 79 -35 82 -27 22 -50 74 -51 117 -1
29 -4 37 -6 21 -2 -16 -8 -28 -12 -28 -15 0 -19 35 -13 109 3 47 -1 94 -11
139 -9 37 -18 99 -19 138 -2 40 -6 70 -9 68 -8 -4 -27 184 -29 291 -1 56 -6
93 -13 97 -18 12 -79 10 -72 -2 3 -5 -1 -10 -9 -10 -9 0 -16 -4 -16 -9 0 -5
-10 -11 -22 -15 -13 -3 -46 -20 -74 -39 -28 -18 -57 -36 -65 -40 -8 -3 -70
-47 -139 -96 -306 -220 -384 -265 -651 -371 -85 -34 -167 -68 -184 -75 -16 -7
-50 -20 -75 -30 -25 -9 -60 -23 -77 -31 -67 -29 -99 -42 -137 -58 -67 -28
-219 -118 -260 -154 -58 -52 -143 -149 -189 -217 -22 -33 -43 -62 -47 -65 -3
-3 -25 -34 -47 -70 -23 -36 -46 -69 -50 -75 -17 -21 -73 -116 -73 -124 0 -5
-3 -11 -7 -13 -10 -4 -103 -158 -103 -169 0 -5 -11 -26 -24 -47 -12 -20 -24
-40 -25 -44 -2 -7 -29 -71 -51 -123 -5 -11 -14 -38 -21 -60 -7 -22 -18 -53
-25 -70 -26 -61 -109 -319 -124 -385 -4 -19 -15 -61 -24 -93 -18 -64 -68 -315
-85 -422 -6 -38 -15 -100 -21 -136 -5 -36 -10 -84 -10 -107 l0 -42 4580 0
4580 0 0 602 0 601 -52 51 c-29 28 -67 62 -83 76 -33 27 -273 190 -281 190 -2
0 -28 15 -57 34 -28 18 -160 94 -292 169 -274 154 -303 170 -365 205 -25 14
-119 68 -210 120 -91 52 -190 108 -220 125 -30 16 -60 34 -66 38 -6 5 -42 26
-80 47 -38 22 -109 63 -159 92 -81 48 -418 243 -505 292 -19 11 -54 33 -78 49
-24 16 -45 29 -48 29 -8 0 -147 96 -169 116 -18 18 -109 93 -145 121 -67 52
-127 94 -195 136 -74 46 -99 61 -166 99 -13 7 -26 16 -29 20 -3 3 -46 27 -97
53 -78 39 -184 76 -284 99 -38 8 -106 61 -132 103 -60 97 -61 214 -6 618 5 39
14 102 19 140 5 39 12 86 16 105 8 50 33 223 45 305 11 81 17 105 29 105 4 0
30 -18 56 -41 81 -67 117 -82 194 -77 202 11 407 234 547 593 18 44 36 96 42
115 6 19 17 56 25 82 24 73 44 168 51 238 13 122 -28 197 -117 216 -35 7 -44
14 -46 33 -5 30 33 174 68 256 4 11 13 36 20 55 7 19 16 44 21 55 17 40 57
171 72 235 9 36 21 90 29 120 19 81 16 386 -5 470 -9 36 -21 84 -27 107 -15
63 -83 232 -132 328 -223 439 -535 810 -863 1024 -68 44 -245 137 -310 162
-82 31 -112 39 -193 53 -111 19 -399 20 -512 1z m1853 -2450 c-3 -9 -8 -14
-10 -11 -3 3 -2 9 2 15 9 16 15 13 8 -4z m-26 -117 c-3 -8 -6 -5 -6 6 -1 11 2
17 5 13 3 -3 4 -12 1 -19z m-3956 -700 c27 -33 23 -62 -11 -96 l-30 -30 0 34
c0 19 -5 34 -10 34 -7 0 -7 6 0 19 5 11 10 29 10 40 0 27 17 27 41 -1z m-34
-160 c-3 -8 -6 -5 -6 6 -1 11 2 17 5 13 3 -3 4 -12 1 -19z m6287 -4223 c10
-31 12 -53 6 -68 -8 -20 -9 -19 -9 9 -1 17 -8 50 -16 73 -8 23 -10 39 -6 36 5
-3 16 -25 25 -50z m-4 -111 c0 -11 -5 -12 -17 -6 -10 5 -25 7 -33 5 -11 -3
-11 -2 -3 4 21 15 53 13 53 -3z m-240 -36 c0 -7 13 -22 27 -32 24 -17 26 -18
20 -2 -6 16 -5 16 15 1 26 -17 71 -20 99 -5 15 8 19 7 19 -5 0 -8 5 -15 10
-15 14 0 13 -53 -2 -85 -9 -20 -17 -25 -32 -21 -12 3 -29 6 -39 6 -10 0 -16 4
-12 10 3 5 12 7 20 3 11 -4 13 -1 9 11 -3 9 -14 16 -24 16 -27 0 -70 -18 -70
-29 0 -6 6 -8 14 -5 8 3 17 1 21 -5 3 -6 0 -9 -8 -6 -20 8 -49 -28 -40 -51 6
-17 8 -16 13 6 5 23 11 25 69 28 l64 3 -6 -27 -5 -28 18 25 c11 13 26 56 35
94 9 39 23 78 30 88 14 20 45 13 45 -10 0 -12 -3 -13 -14 -4 -11 9 -16 5 -26
-19 -11 -27 -10 -34 12 -68 14 -20 30 -54 37 -75 l13 -37 -64 -60 c-35 -33
-74 -63 -88 -66 -14 -4 -42 -16 -64 -26 -21 -11 -47 -17 -57 -15 -11 3 -32 0
-48 -6 l-29 -11 32 -16 c19 -9 34 -12 38 -6 4 6 47 11 97 13 75 2 94 6 111 23
24 24 29 24 55 6 11 -7 55 -15 97 -18 43 -3 84 -10 92 -17 8 -7 23 -33 32 -57
14 -36 15 -49 5 -67 -26 -49 -35 -50 -386 -54 -181 -1 -379 -3 -440 -4 -108
-1 -165 6 -165 21 0 4 -9 17 -20 30 -41 47 -15 132 52 166 25 13 45 14 97 8
74 -9 159 -9 168 0 3 3 1 12 -5 19 -7 8 -10 35 -7 66 2 29 0 63 -5 77 -6 15
-6 24 0 24 6 0 10 7 10 15 0 11 12 15 53 15 61 0 83 -11 73 -35 -5 -15 -16
-17 -68 -12 -39 3 -56 2 -47 -4 8 -5 38 -9 67 -9 40 0 56 5 69 20 10 11 23 20
30 20 7 0 13 5 13 11 0 5 -8 9 -17 8 -34 -3 -43 1 -43 21 0 21 -32 34 -71 28
-16 -2 -23 -9 -21 -20 2 -13 -4 -18 -22 -18 -21 0 -26 6 -34 47 -6 26 -7 50
-2 53 4 3 10 16 11 30 3 19 9 24 26 22 12 -2 31 2 43 8 18 10 20 8 20 -22 l1
-33 16 30 17 30 8 -32 c11 -43 28 -42 28 0 0 19 3 37 7 40 10 11 23 8 23 -5z
m-255 -39 c-5 -13 -3 -19 3 -15 5 3 12 -1 16 -9 3 -9 0 -15 -10 -15 -17 0 -28
24 -20 45 9 23 18 18 11 -6z m195 -113 c0 -3 -4 -8 -10 -11 -5 -3 -10 -1 -10
4 0 6 5 11 10 11 6 0 10 -2 10 -4z"/>
<path d="M9260 870 c-11 -7 -7 -10 18 -10 17 0 32 5 32 10 0 13 -30 13 -50 0z"/>
<path d="M9515 870 c-3 -6 1 -7 9 -4 18 7 21 14 7 14 -6 0 -13 -4 -16 -10z"/>
<path d="M9328 863 c7 -3 16 -2 19 1 4 3 -2 6 -13 5 -11 0 -14 -3 -6 -6z"/>
<path d="M9508 733 c6 -2 18 -2 25 0 6 3 1 5 -13 5 -14 0 -19 -2 -12 -5z"/>
<path d="M9375 640 c3 -5 11 -10 16 -10 6 0 7 5 4 10 -3 6 -11 10 -16 10 -6 0
-7 -4 -4 -10z"/>
<path d="M9278 583 c6 -2 18 -2 25 0 6 3 1 5 -13 5 -14 0 -19 -2 -12 -5z"/>
<path d="M9378 563 c7 -3 16 -2 19 1 4 3 -2 6 -13 5 -11 0 -14 -3 -6 -6z"/>
<path d="M8981 524 c-29 -37 -27 -89 4 -119 13 -14 31 -25 39 -25 19 0 46 27
46 46 0 12 -3 12 -20 2 -40 -25 -81 40 -49 78 14 17 46 18 52 2 3 -9 7 -7 12
6 17 41 -53 49 -84 10z"/>
<path d="M9690 540 c0 -5 5 -10 10 -10 6 0 10 5 10 10 0 6 -4 10 -10 10 -5 0
-10 -4 -10 -10z"/>
<path d="M9294 526 c-15 -17 -4 -128 14 -134 8 -3 12 12 12 51 0 35 5 57 12
59 9 3 8 9 -4 21 -20 20 -20 20 -34 3z"/>
<path d="M9103 513 c-24 -9 -14 -30 12 -25 30 5 34 -14 5 -23 -43 -14 -48 -68
-7 -79 52 -14 57 -9 57 47 0 28 -4 57 -8 63 -9 14 -43 24 -59 17z m45 -86 c2
-12 -3 -17 -17 -17 -12 0 -21 6 -21 13 0 31 32 34 38 4z"/>
<path d="M9195 507 c-10 -25 -1 -120 12 -124 8 -3 13 13 15 49 2 44 6 53 21
50 10 -2 17 3 17 12 0 19 -17 29 -25 16 -5 -8 -11 -7 -21 1 -11 9 -15 8 -19
-4z"/>
<path d="M9370 500 c-11 -11 -20 -33 -20 -50 0 -28 29 -70 48 -70 26 0 47 31
47 70 0 30 -6 46 -20 56 -25 18 -31 18 -55 -6z m48 -48 c3 -26 0 -32 -16 -32
-23 0 -35 24 -26 52 9 31 39 17 42 -20z"/>
<path d="M9482 504 c-33 -23 -31 -88 4 -111 26 -17 27 -16 50 11 29 33 30 55
3 90 -24 30 -27 31 -57 10z m43 -49 c0 -23 -4 -30 -20 -30 -21 0 -31 25 -21
51 11 28 41 12 41 -21z"/>
<path d="M9609 512 c-29 -3 -39 -24 -39 -77 0 -33 15 -63 26 -52 4 4 8 28 8
54 1 38 5 48 20 51 17 4 18 -1 14 -52 -3 -41 -1 -56 8 -56 28 0 29 123 1 132
-7 2 -24 2 -38 0z"/>
<path d="M9684 507 c-10 -26 0 -120 14 -125 9 -3 12 14 12 62 0 61 -14 95 -26
63z"/>
<path d="M9740 505 c0 -8 9 -15 21 -15 l20 0 -20 -29 c-12 -16 -22 -39 -23
-52 -3 -21 2 -24 35 -27 28 -2 37 0 37 12 0 9 -9 16 -20 16 -11 0 -20 5 -20
11 0 6 9 22 20 36 32 41 27 63 -15 63 -24 0 -35 -5 -35 -15z"/>
<path d="M9857 508 c-40 -22 -44 -98 -6 -119 24 -12 59 5 58 29 0 10 -3 12 -6
5 -6 -15 -39 -17 -48 -3 -3 5 8 16 25 25 18 9 30 23 30 35 0 25 -30 41 -53 28z
m33 -27 c0 -10 -30 -24 -37 -17 -3 3 -2 9 2 15 8 13 35 15 35 2z"/>
<path d="M4910 8388 c-86 -14 -140 -30 -140 -39 0 -5 19 -10 43 -10 23 -1 53
-3 67 -4 14 -1 70 -5 125 -9 138 -9 362 -54 538 -108 37 -12 71 -18 75 -13 12
12 -90 97 -153 125 -33 15 -85 33 -115 40 -30 7 -68 16 -84 21 -37 11 -284 9
-356 -3z"/>
<path d="M5000 8200 c-18 -11 -5 -16 140 -49 308 -69 353 -87 543 -214 247
-164 388 -211 255 -84 -136 129 -393 262 -601 311 -132 31 -314 51 -337 36z"/>
<path d="M6100 8171 c0 -25 98 -78 125 -67 28 10 15 27 -40 52 -59 25 -85 30
-85 15z"/>
<path d="M5780 8156 c0 -14 349 -220 358 -211 17 17 -116 109 -250 173 -78 38
-108 49 -108 38z"/>
<path d="M5560 7676 c0 -7 10 -36 21 -65 15 -35 27 -51 40 -51 22 0 24 19 5
63 -21 52 -66 88 -66 53z"/>
<path d="M5770 7466 c0 -42 103 -76 117 -39 10 25 -40 63 -83 63 -29 0 -34 -3
-34 -24z"/>
<path d="M5856 7346 c-48 -47 -40 -55 147 -145 94 -45 180 -87 189 -92 26 -13
48 -11 48 6 0 18 -201 200 -249 225 -20 10 -53 21 -73 25 -31 6 -41 3 -62 -19z"/>
<path d="M6301 7206 c-28 -34 15 -120 103 -205 46 -46 68 -49 49 -8 -64 135
-113 223 -125 225 -8 2 -20 -4 -27 -12z"/>
<path d="M5248 7130 c-4 -8 -9 -37 -11 -64 -4 -42 -3 -46 10 -34 10 10 13 31
11 64 -2 27 -6 42 -10 34z"/>
<path d="M5795 7084 c-8 -8 -18 -15 -22 -16 -51 -6 -75 -31 -77 -78 0 -14 -4
-30 -8 -36 -10 -15 -1 -56 14 -66 7 -4 21 -8 31 -8 13 0 17 -8 17 -32 0 -51
20 -110 43 -129 30 -25 92 -24 124 1 19 15 30 17 43 10 30 -16 50 -12 75 18
28 31 43 69 39 95 -1 9 2 17 7 17 6 0 7 6 4 13 -4 6 18 -13 47 -45 29 -31 80
-100 112 -154 33 -54 71 -111 85 -128 78 -90 95 -106 102 -99 8 8 -32 159 -52
195 -5 10 -9 28 -9 40 0 12 -3 19 -6 15 -3 -3 -16 13 -29 36 -12 23 -35 65
-51 94 -15 28 -33 51 -38 50 -6 -1 -10 6 -8 17 2 10 -1 15 -6 12 -11 -7 -55
38 -45 47 3 4 1 7 -6 7 -6 0 -16 11 -21 25 -7 18 -16 24 -32 22 -14 -1 -22 3
-21 10 2 8 -4 10 -14 6 -12 -5 -14 -3 -8 7 6 10 4 12 -8 7 -10 -3 -17 -3 -17
2 0 4 -19 13 -42 20 -25 8 -37 16 -29 20 6 4 -3 8 -21 8 -18 1 -61 4 -96 6
-46 4 -66 2 -77 -9z m-58 -190 c-3 -3 -12 -4 -19 -1 -8 3 -5 6 6 6 11 1 17 -2
13 -5z"/>
<path d="M5372 7020 c-6 -11 -12 -26 -12 -33 0 -7 -9 -33 -21 -56 -23 -49 -19
-63 11 -36 29 26 50 73 50 112 0 38 -9 42 -28 13z"/>
<path d="M5596 6744 c-21 -55 20 -104 89 -104 60 0 60 23 1 78 -47 44 -80 53
-90 26z"/>
<path d="M7200 6624 c0 -8 5 -12 10 -9 6 3 10 10 10 16 0 5 -4 9 -10 9 -5 0
-10 -7 -10 -16z"/>
<path d="M5876 6591 c5 -5 48 -18 97 -30 48 -11 125 -31 173 -42 47 -12 87
-19 91 -16 15 15 -42 52 -129 82 -47 16 -249 22 -232 6z"/>
<path d="M7133 6565 c-14 -6 -23 -19 -23 -31 0 -22 23 -34 68 -34 17 0 22 6
22 28 0 34 -34 52 -67 37z"/>
<path d="M7000 6495 c-22 -58 -54 -356 -44 -417 5 -36 35 -60 52 -43 30 29 45
434 18 471 -14 18 -15 18 -26 -11z"/>
<path d="M4206 6373 c-3 -4 -6 -38 -6 -78 0 -61 4 -77 29 -117 61 -96 114 -83
72 17 -7 17 -19 50 -28 75 -30 92 -49 121 -67 103z"/>
<path d="M7096 6338 c-3 -7 -7 -32 -9 -55 -4 -35 -2 -43 11 -43 10 0 23 12 30
27 15 33 16 53 2 53 -5 0 -10 7 -10 15 0 18 -19 20 -24 3z"/>
<path d="M4641 6150 c-56 -5 -77 -11 -87 -25 -23 -31 -11 -40 57 -40 l64 0 62
-61 c120 -118 210 -131 250 -36 13 30 12 38 -6 75 -12 23 -38 53 -58 67 -33
22 -50 25 -123 26 -47 0 -118 -2 -159 -6z"/>
<path d="M4380 6086 c0 -17 70 -86 87 -86 7 0 13 -4 13 -10 0 -5 9 -10 20 -10
30 0 25 12 -32 68 -50 50 -88 67 -88 38z"/>
<path d="M4392 5808 c-7 -46 -12 -107 -12 -135 0 -45 4 -54 28 -71 38 -26 89
-45 101 -37 6 3 11 26 11 51 0 41 -3 46 -30 56 -37 12 -50 34 -43 71 5 28 9
29 78 33 22 1 45 2 51 3 12 1 34 44 34 65 0 17 -58 34 -140 41 l-66 6 -12 -83z"/>
<path d="M5065 5832 c-27 -16 -83 -34 -122 -42 -40 -7 -73 -16 -73 -19 0 -16
61 -31 122 -31 l69 0 50 50 c72 72 49 94 -46 42z"/>
<path d="M4674 5695 c-62 -107 -88 -197 -62 -223 49 -49 105 44 110 185 4 93
-10 103 -48 38z"/>
<path d="M4221 5704 c-28 -36 -28 -57 2 -49 29 9 34 15 42 48 9 36 -16 37 -44
1z"/>
<path d="M7346 5608 c-3 -7 -7 -42 -11 -78 -5 -58 -5 -63 8 -45 18 26 31 121
17 130 -5 3 -12 0 -14 -7z"/>
<path d="M3875 5503 c6 -4 10 -16 10 -27 0 -14 18 -26 74 -47 41 -16 77 -27
79 -24 12 11 -33 58 -71 74 -48 20 -107 36 -92 24z"/>
<path d="M7054 5403 c4 -43 12 -94 18 -113 11 -34 12 -34 19 -10 11 38 10 145
-1 174 -5 14 -17 26 -26 26 -14 0 -16 -10 -10 -77z"/>
<path d="M4900 5398 c0 -6 27 -63 61 -125 33 -63 58 -117 55 -120 -3 -4 0 -13
6 -21 21 -25 19 -44 -4 -36 -22 7 -158 -52 -158 -68 0 -13 112 -8 153 6 20 8
40 10 43 5 11 -19 25 -8 18 13 -6 20 -5 21 9 10 9 -8 21 -11 27 -7 15 9 12 -6
-5 -25 -14 -15 -13 -20 10 -44 24 -26 25 -31 25 -166 0 -100 3 -141 13 -147
41 -26 127 -42 127 -24 0 5 13 12 30 16 80 18 130 109 99 179 -16 35 -29 23
-29 -28 0 -48 -6 -55 -68 -78 -42 -16 -43 -16 -58 8 -9 13 -14 31 -10 39 3 9
2 13 -3 10 -5 -3 -12 4 -16 14 -6 21 13 67 51 117 35 47 38 76 16 125 -22 47
-127 153 -143 143 -5 -3 -9 0 -9 7 0 7 -10 9 -24 7 -18 -4 -23 -1 -18 10 3 10
1 13 -6 8 -6 -3 -16 3 -22 15 -17 30 -39 57 -96 116 -50 52 -74 65 -74 41z
m205 -326 c-7 -7 -45 19 -45 30 0 6 -8 21 -17 32 -10 12 1 3 24 -19 23 -22 40
-41 38 -43z"/>
<path d="M3846 5332 c-28 -45 303 -231 489 -274 207 -48 445 -74 445 -49 0 17
-97 56 -175 71 -95 18 -203 42 -235 52 -59 19 -144 48 -165 57 -41 18 -122 54
-170 76 -50 23 -176 75 -181 75 -2 0 -5 -4 -8 -8z"/>
<path d="M4310 5313 c0 -5 48 -23 108 -42 59 -18 117 -37 129 -42 12 -4 25 -5
27 0 6 9 -54 41 -134 71 -54 20 -130 27 -130 13z"/>
<path d="M6264 4985 c-44 -100 -27 -114 37 -30 43 57 46 85 9 85 -16 0 -27
-14 -46 -55z"/>
<path d="M3864 4998 c10 -57 12 -62 29 -72 22 -14 46 18 47 60 0 34 -13 44
-57 44 -23 0 -25 -3 -19 -32z"/>
<path d="M6918 5024 c-10 -3 -18 -9 -18 -14 0 -14 56 -50 79 -50 38 0 112 43
98 57 -8 8 -137 13 -159 7z"/>
<path d="M4086 4890 c-3 -16 -9 -44 -12 -61 -5 -26 -3 -30 12 -27 25 4 78 82
71 102 -4 10 -18 16 -36 16 -25 0 -30 -5 -35 -30z"/>
<path d="M4280 4852 c0 -11 101 -108 127 -121 25 -13 73 -15 73 -3 0 17 -68
72 -126 101 -65 33 -74 36 -74 23z"/>
<path d="M5996 4741 c-8 -12 3 -41 15 -41 5 0 9 -11 9 -25 0 -35 16 -31 24 6
11 57 8 69 -18 69 -14 0 -27 -4 -30 -9z"/>
<path d="M3911 4474 c0 -11 3 -14 6 -6 3 7 2 16 -1 19 -3 4 -6 -2 -5 -13z"/>
<path d="M4434 4345 c-19 -15 -19 -15 5 -35 44 -37 86 -15 55 29 -18 25 -33
26 -60 6z"/>
<path d="M6010 4205 c-11 -13 -10 -14 4 -9 9 3 16 10 16 15 0 13 -6 11 -20 -6z"/>
</g>
</svg>
